<svg xmlns="http://www.w3.org/2000/svg" xmlns:svg="http://www.w3.org/2000/svg" id="svg19" width="32" height="32" version="1.1" viewBox="0 0 30.72 30.72"><metadata id="metadata25"/><g id="surface1" transform="matrix(0.85333333,0,0,0.85333333,-5.12,-5.12)"><path style="fill:#cfd8dc" id="path2" d="m 15,13 h 25 c 1.105469,0 2,0.894531 2,2 v 25 c 0,1.105469 -0.894531,2 -2,2 H 26 Z"/><path style="fill:#546e7a" id="path4" d="m 26.832031,34.855469 -0.917968,-1.777344 0.890625,-0.460937 c 0.0625,-0.02734 6.101562,-3.207032 9.042968,-9.101563 l 0.445313,-0.894531 1.792969,0.890625 -0.449219,0.894531 c -3.242188,6.496094 -9.644531,9.851563 -9.914063,9.992188 z"/><path style="fill:#546e7a" id="path6" d="M 38.019531,34 37.148438,33.511719 C 36.941406,33.394531 32.058594,30.609375 28.652344,25.84375 l 1.628906,-1.164062 c 3.136719,4.394531 7.804688,7.0625 7.851563,7.089843 L 39,32.261719 Z"/><path style="fill:#546e7a" id="path8" d="m 26,22 h 14 v 2 H 26 Z"/><path style="fill:#546e7a" id="path10" d="m 32,20 h 2 v 4 h -2 z"/><path style="fill:#2196f3" id="path12" d="M 33,35 H 8 C 6.894531,35 6,34.105469 6,33 V 8 C 6,6.894531 6.894531,6 8,6 h 14 z"/><path style="fill:#3f51b5" id="path14" d="M 26,42 23,35 H 33 Z"/><path style="fill:#fff" id="path16" d="M 19.171875,24 H 14.8125 l -1.007812,3 H 11 l 4.765625,-13 h 2.441406 L 23,27 h -2.804687 z m -3.726562,-2 h 3.101562 l -1.5625,-4.714844 z"/></g></svg>