<svg xmlns="http://www.w3.org/2000/svg" xmlns:svg="http://www.w3.org/2000/svg" id="svg8" width="187.043" height="188.815" version="1.1" viewBox="0 0 49.488 49.957"><defs id="defs2"><rect id="rect835" width="71.115" height="52.835" x="25.162" y="84.327"/><rect id="rect835-7" width="71.115" height="52.835" x="25.162" y="84.327"/><rect id="rect874" width="71.115" height="52.835" x="25.162" y="84.327"/><rect id="rect923" width="71.115" height="52.835" x="25.162" y="84.327"/></defs><metadata id="metadata5"/><rect style="fill:#42a5f5;stroke-width:.132292" id="rect50" width="49.488" height="49.957" x="0" y="0" rx="0" ry="5.292"/><g id="layer1" transform="matrix(0.89290527,0,0,0.89290527,-18.263966,-21.701959)"><g id="g861" transform="translate(-42.114518,-17.993737)" style="fill:#fff"><g id="text833" aria-label="众" transform="matrix(4.3205134,0,0,4.3205134,-37.271798,-327.6536)" style="font-style:normal;font-weight:400;font-size:10.5833px;line-height:1.25;font-family:sans-serif;letter-spacing:0;word-spacing:0;white-space:pre;shape-inside:url(#rect835);fill:#fff;fill-opacity:1;stroke:none"><path style="font-style:normal;font-variant:normal;font-weight:700;font-stretch:normal;font-family:'Adobe Garamond Pro';-inkscape-font-specification:'Adobe Garamond Pro Bold';fill:#fff" id="path961" d="m 34.996103,90.121035 -0.614947,0.759641 q -2.754346,-1.41593 -3.948067,-2.950715 -1.167884,1.617467 -3.7672,2.888703 L 26.0096,90.084861 q 3.457142,-1.601964 4.283963,-3.849882 l 0.878496,0.273884 q -0.175699,0.516763 -0.232543,0.604613 1.116207,1.596797 4.056587,3.007559 z m 0.165364,4.91958 -0.676959,0.645954 q -1.514115,-1.157549 -2.346102,-2.826692 -0.547769,1.550288 -2.268589,2.806021 l -0.676959,-0.625283 q 1.19889,-0.795814 1.798334,-1.875848 0.599445,-1.080034 0.682127,-3.079906 l 0.909502,0.07751 q 0,0.268716 -0.04134,0.671791 l -0.03617,0.361734 q 0,0.273884 0.30489,1.033525 0.310058,0.754474 0.899167,1.467606 0.594277,0.707965 1.452103,1.343583 z m -4.800725,-1.374588 -0.702797,0.63045 q -0.594277,-0.780312 -1.162716,-1.276404 -0.651121,1.421098 -2.020542,2.676831 l -0.687295,-0.614948 q 1.229895,-1.095537 1.767329,-2.201409 0.5426,-1.105872 0.697629,-2.795686 l 0.919838,0.09819 q -0.103353,0.940508 -0.366902,1.91719 1.00252,0.862993 1.555456,1.565791 z"/></g><g id="text841" aria-label="L" style="font-style:normal;font-weight:400;font-size:43.3964px;line-height:1.25;font-family:sans-serif;letter-spacing:0;word-spacing:0;fill:#fff;fill-opacity:1;stroke:none;stroke-width:1.08492"><path style="fill:#fff;stroke-width:1.08492" id="path964" d="M 84.81389,94.883148 V 91.324643 H 69.191186 V 63.247172 h -4.035865 v 31.635976 z"/></g></g></g></svg>